# xmcd
#
# Track frame offsets: 
#        150
#        18635
#        36750
#        54144
#        69928
#        85576
#        103501
#        122468
#        139098
#        154391
#        170207
#
# Disc length: 2516 seconds
#
# Revision: 0
# Processed by: cddbd v1.5.2PL0 Copyright (c) Steve Scherf et al.
# Submitted via: ExactAudioCopy v0.99pb5
#
DISCID=8809d20b
DTITLE=Whitney Duncan - Right Road Now
DYEAR=2010
DGENRE=Country
TTITLE0=When I Said I Would
TTITLE1=Right Road Now
TTITLE2=Little By Little
TTITLE3=Skinny Dippin'
TTITLE4=The Bed That You Made
TTITLE5=Burn It Down
TTITLE6=Open Road
TTITLE7=So Sorry Mama
TTITLE8=Kinda Crazy
TTITLE9=Coming Home To You
TTITLE10=Away
EXTD=
EXTT0=
EXTT1=
EXTT2=
EXTT3=
EXTT4=
EXTT5=
EXTT6=
EXTT7=
EXTT8=
EXTT9=
EXTT10=
PLAYORDER=
